<?xml version="1.0" encoding="UTF-8"?>
<svg id="Layer_2" data-name="Layer 2" xmlns="http://www.w3.org/2000/svg" xmlns:xlink="http://www.w3.org/1999/xlink" version="1.1" viewBox="0 0 648 648">
  <defs>
    <style>
      .cls-1 {
        fill: url(#linear-gradient);
      }

      .cls-1, .cls-2, .cls-3, .cls-4, .cls-5, .cls-6, .cls-7, .cls-8, .cls-9 {
        stroke-width: 0px;
      }

      .cls-2 {
        fill: #959472;
      }

      .cls-3 {
        fill: #fcf8c9;
      }

      .cls-4 {
        fill: #d4d3a5;
      }

      .cls-5 {
        fill: #000;
      }

      .cls-6 {
        fill: #424242;
      }

      .cls-7 {
        fill: #8cff00;
      }

      .cls-8 {
        fill: #afaeae;
      }

      .cls-9 {
        fill: #fff;
      }
    </style>
    <linearGradient id="linear-gradient" x1="73.65" y1="331.36" x2="574.37" y2="331.36" gradientTransform="translate(0 648) scale(1 -1)" gradientUnits="userSpaceOnUse">
      <stop offset="0" stop-color="#1b1b1b"/>
      <stop offset=".6" stop-color="#626262"/>
      <stop offset="1" stop-color="#a4a4a4"/>
    </linearGradient>
  </defs>
  <path class="cls-8" d="M294.54,309.27v-14.72h-29.46v44.18h29.46v-14.72h14.73v-14.73h-14.73Z"/>
  <path class="cls-3" d="M353.45,265.09v-29.46h-14.72v-29.46h-29.45v-14.72h-29.46v14.72h-29.46v14.73h-14.72v29.46h-14.73v14.72h-14.72v117.81h14.72v29.47h14.73v14.72h44.18v14.72h44.18v-14.72h14.72v-29.45h14.72v-29.46h14.73v-103.09h-14.73.01ZM338.72,294.55v44.18h-14.72v29.46h-58.91v-14.73h-14.72v-73.64h14.72v-14.72h58.91v14.72h14.72v14.73h0Z"/>
  <path class="cls-4" d="M176.73,250.37v29.45h-14.72v-29.45h-29.46v14.72h-14.72v117.81h73.64v-132.53h-14.74Z"/>
  <g>
    <rect class="cls-2" x="206.18" y="220.91" width="14.72" height="14.72"/>
    <rect class="cls-2" x="191.46" y="235.63" width="14.72" height="14.73"/>
    <path class="cls-2" d="M191.46,382.9h-14.73v29.47h14.73v14.72h14.72v-29.45h-14.72v-14.74Z"/>
    <rect class="cls-2" x="162.01" y="427.09" width="14.72" height="14.72"/>
    <path class="cls-2" d="M162.01,397.64h-14.73v-14.74h-14.72v29.47h14.72v14.72h14.73v-29.45Z"/>
    <path class="cls-2" d="M147.27,235.63v14.73h14.73v-14.73h14.72v-14.72h14.73v-14.73h14.72v-14.72h-29.46v14.72h-14.72v14.73h-14.73v14.72h.01Z"/>
    <rect class="cls-2" x="132.55" y="191.45" width="14.72" height="14.72"/>
    <path class="cls-2" d="M132.55,220.91v-14.73h-14.72v14.73h-14.73v29.46h-14.72v132.53h14.72v-14.71h14.73v-132.55h14.72v-14.72h0Z"/>
    <rect class="cls-2" x="103.09" y="397.64" width="14.73" height="14.72"/>
  </g>
  <g>
    <path class="cls-6" d="M324,265.09h-58.91v14.72h-14.72v73.64h14.72v14.73h58.91v-29.46h14.72v-58.91h-14.72v-14.72h0ZM309.28,324.01h-14.73v14.72h-29.46v-44.18h29.46v14.72h14.73v14.73h0Z"/>
    <path class="cls-1" d="M368.18,191.45h206.18v-14.72H117.83v14.72h-14.73v14.72h-14.72v29.46h-14.73v162.01h14.73v29.45h14.72v14.72h14.73v14.73h456.54v-14.73h-220.92v-29.45h14.73v14.72h132.54v-14.72h-117.81v-14.72h-14.73v-14.74h103.09v14.74h103.09v-14.74h-88.37v-14.71h-103.08v-14.73h191.45v-14.72h-191.45v-29.46h73.64v14.73h117.82v-14.73h-103.09v-14.72h-88.36v-14.73h161.99v14.73h29.46v-14.73h-14.73v-14.72h-176.72v-14.72h191.45v-14.73h-206.18v-14.72h206.18v-14.73h-220.92v-14.72h14.73v-.04ZM117.83,412.37h-14.73v-14.72h14.73v14.72ZM206.18,412.37v14.72h-14.72v-14.72h-14.73v-29.47h-29.46v14.74h14.73v29.45h14.72v14.72h-14.72v-14.72h-14.73v-14.72h-14.72v-29.47h-14.72v-14.71h-14.73v14.71h-14.72v-132.53h14.72v-29.46h14.73v-14.73h14.72v-14.72h14.72v14.72h-14.72v29.46h-14.72v29.46h14.72v-14.72h14.72v-29.46h14.73v-14.73h14.72v-14.72h29.46v14.72h-14.72v14.73h-14.73v14.72h-14.72v44.18h14.72v-29.45h14.73v-14.73h14.72v-14.72h14.72v14.72h-14.72v14.73h-14.72v147.27h14.72v14.72h0ZM368.18,265.09v103.09h-14.73v29.46h-14.72v29.45h-14.72v14.72h-44.18v-14.72h-44.18v-14.72h-14.73v-29.47h-14.72v-117.81h14.72v-14.72h14.73v-29.46h14.72v-14.73h29.46v-14.72h29.46v14.72h29.45v29.46h14.72v29.46h14.73-.01Z"/>
  </g>
  <g>
    <path class="cls-7" d="M559.63,58.91h-73.64v103.08h88.37v-29.45h-58.91v-14.73h44.18v-14.72h-44.18v-14.73h58.91v-29.45h-14.73Z"/>
    <path class="cls-7" d="M544.91,471.27h-73.64v103.09h103.09v-29.46h-73.65v-14.72h44.19v-14.72h-44.19v-14.73h73.65v-29.46h-29.46.01Z"/>
    <path class="cls-7" d="M471.27,73.64v-14.72h-103.09v29.45h44.18v73.64h14.73v-73.64h44.18v-14.72h0Z"/>
    <path class="cls-7" d="M412.36,471.27v44.19h29.45v-44.19h-29.45Z"/>
    <path class="cls-7" d="M382.91,515.46v29.45h29.45v-29.45h-29.45Z"/>
    <path class="cls-7" d="M368.18,559.64v14.72h14.73v-29.46h-14.73v14.73h0Z"/>
    <path class="cls-7" d="M368.18,515.46h-29.46v29.45h29.46v-29.45Z"/>
    <path class="cls-7" d="M338.72,486v-14.73h-29.45v44.19h29.45v-29.46h0Z"/>
    <path class="cls-7" d="M324,117.82h14.72v44.18h14.72v-73.64h-14.72v14.73h-44.18v-14.73h-14.72v73.64h14.72v-44.18h29.46Z"/>
    <path class="cls-7" d="M324,88.36h14.72v-29.45h-44.18v29.45h29.46Z"/>
    <path class="cls-7" d="M250.36,471.27h-44.18v29.46h29.46v44.18h-29.46v29.46h73.64v-29.46h-14.73v-44.18h14.73v-29.46h-29.46Z"/>
    <path class="cls-7" d="M235.64,162h14.72v-29.45h-14.72v29.45Z"/>
    <path class="cls-7" d="M250.36,73.64v-14.72h-14.72v29.45h14.72v-14.72h0Z"/>
    <rect class="cls-7" x="220.91" y="117.82" width="14.73" height="14.73"/>
    <rect class="cls-7" x="220.91" y="88.36" width="14.73" height="14.73"/>
    <path class="cls-7" d="M220.91,117.82v-14.72h-29.45v-44.18h-14.73v103.08h14.73v-44.18h29.45Z"/>
    <path class="cls-7" d="M162.01,486v29.46h-58.91v-44.19h-29.46v103.09h29.46v-29.46h58.91v29.46h14.72v-103.09h-14.72v14.73Z"/>
    <rect class="cls-7" x="132.55" y="117.82" width="14.72" height="14.73"/>
    <path class="cls-7" d="M117.83,103.09h-29.46v14.72h44.18v-14.72h-14.72Z"/>
    <path class="cls-7" d="M117.83,88.36h29.45v-29.45h-58.9v29.45h29.46,0Z"/>
    <path class="cls-7" d="M103.09,162h29.46v-29.45h-58.91v29.45h29.46,0Z"/>
    <rect class="cls-7" x="73.64" y="88.36" width="14.73" height="14.73"/>
  </g>
  <path class="cls-9" d="M618.54,14.72H14.73v618.55h618.53V14.72h-14.72ZM618.54,44.18v574.36H29.46V29.46h589.09v14.72h-.01Z"/>
  <g>
    <path class="cls-5" d="M633.27,0H0v648h648V0h-14.73ZM633.27,29.46v603.82H14.73V14.72h618.53v14.73h.01Z"/>
    <path class="cls-5" d="M589.09,29.46H29.46v589.09h589.09V29.46h-29.46ZM191.46,73.64v29.46h29.45v-14.73h14.73v-29.45h14.72v29.45h-14.72v14.73h-14.73v14.72h14.73v14.73h14.72v29.45h-14.72v-29.45h-14.73v-14.73h-29.45v44.18h-14.73V58.91h14.73v14.72h0ZM574.36,73.64v14.72h-58.91v14.73h44.18v14.72h-44.18v14.73h58.91v29.45h-88.37V58.91h88.37v14.72h0ZM574.36,191.45h-220.92v14.72h220.92v14.73h-206.18v14.72h206.18v14.73h-191.45v14.72h176.72v14.72h14.73v14.73h-29.46v-14.73h-161.99v14.73h88.36v14.72h103.09v14.73h-117.82v-14.73h-73.64v29.46h191.45v14.72h-191.45v14.73h103.08v14.71h88.37v14.74h-103.09v-14.74h-103.09v14.74h14.73v14.72h117.81v14.72h-132.54v-14.72h-14.73v29.45h220.92v14.73H117.83v-14.73h-14.73v-14.72h-14.72v-29.45h-14.73v-162.01h14.73v-29.46h14.72v-14.72h14.73v-14.72h456.54v14.76ZM574.36,486v14.72h-73.65v14.73h44.19v14.72h-44.19v14.72h73.65v29.46h-103.09v-103.09h103.09v14.73h0ZM162.01,559.64v-14.73h-58.91v29.46h-29.46v-103.09h29.46v44.19h58.91v-44.19h14.72v103.09h-14.72v-14.72h0ZM206.18,559.64v-14.73h29.46v-44.18h-29.46v-29.46h73.64v29.46h-14.73v44.18h14.73v29.46h-73.64v-14.72h0ZM368.18,559.64v-14.73h-29.46v-29.45h-29.45v-44.19h29.45v44.19h29.46v29.45h14.73v-29.45h29.45v-44.19h29.45v44.19h-29.45v29.45h-29.45v29.46h-14.73v-14.72h0ZM471.27,73.64v14.72h-44.18v73.64h-14.73v-73.64h-44.18v-29.45h103.09v14.72h0ZM338.72,73.64v14.72h14.72v73.64h-14.72v-44.18h-44.18v44.18h-14.72v-73.64h14.72v-29.45h44.18v14.72h0ZM147.27,73.64v14.72h-58.9v14.73h44.18v14.72h14.72v14.73h-14.72v29.45h-58.91v-29.45h58.91v-14.73h-44.18v-14.72h-14.73v-14.73h14.73v-29.45h58.9v14.72h0Z"/>
    <polygon class="cls-5" points="309.28 88.36 294.54 88.36 294.54 103.09 309.28 103.09 324 103.09 338.72 103.09 338.72 88.36 324 88.36 309.28 88.36"/>
  </g>
</svg>