<svg width="45" height="40" viewBox="0 0 45 40" fill="none" xmlns="http://www.w3.org/2000/svg">
<g id="moon1">
<g id="Group">
<g id="Group_2">
<path id="Vector" fill-rule="evenodd" clip-rule="evenodd" d="M20.2791 0.476004C31.816 0.208923 40.7501 9.54699 40.4886 20.1635C40.2479 29.914 32.4667 39.5862 20.9376 39.5373C9.37649 39.4883 0.99429 30.2153 0.968374 19.8083C0.942634 9.45222 8.90776 0.739217 20.2791 0.476004Z" fill="#FFFF7B"/>
</g>
<path id="Vector_2" fill-rule="evenodd" clip-rule="evenodd" d="M42.5146 10.6044L37.0585 10.2617L38.3731 24.2243L42.7565 23.9432C43.0335 19.499 42.9307 15.0526 42.5146 10.6044Z" fill="#FFFF7B"/>
</g>
<g id="Group_3">
<path id="Vector_3" fill-rule="evenodd" clip-rule="evenodd" d="M5.38175 15.2735C5.35418 14.9541 4.64654 15.892 4.64654 15.892L4.53497 23.826C4.53497 23.826 7.20675 23.9785 7.8114 23.8813C8.05131 23.8426 8.1348 23.4838 8.16353 23.2423C8.25599 22.464 8.36652 19.2121 8.36652 19.2121L10.5264 19.2415L10.8682 24.6551C10.9572 24.9138 22.2699 25.309 24.505 24.8917C24.7756 24.8412 24.9444 24.4957 24.9924 24.2243C25.1602 23.2745 25.5128 19.1931 25.5128 19.1931L29.0706 19.2319L29.4438 24.2243C29.4438 24.2243 29.7741 24.8033 30.0614 24.8381C31.2889 24.9862 34.5671 25.1387 36.8036 25.1135C39.0337 25.0886 42.3196 24.8776 43.4808 24.6876C43.7344 24.6462 43.7409 24.2288 43.7734 23.9736C44.0998 21.3814 43.5393 11.0146 43.3703 11.2654L42.5147 10.6044C42.5147 10.6044 42.7643 13.2903 42.8046 14.6375C42.871 16.8335 42.9113 23.7803 42.9113 23.7803C42.9113 23.7803 40.1143 24.1978 38.7047 24.2243C36.4577 24.2665 29.4295 24.0337 29.4295 24.0337L29.0927 18.2091L25.479 18.1823L25.0169 24.0718C25.0617 24.4186 11.9113 24.0828 11.6271 23.8782C11.2487 23.3122 11.7515 12.1351 12.0419 10.5559C12.105 10.2124 11.3711 10.9305 11.2718 11.2654C11.0495 12.0158 10.8239 13.8988 10.7074 15.0582C10.6019 16.1085 10.5728 18.2221 10.5728 18.2221L8.26483 18.2056L8.25456 19.2108L8.16353 23.2423L5.2755 23.2014C5.2755 23.2014 5.48655 16.4916 5.38175 15.2735Z" fill="#F1D162"/>
<g id="Group_4">
<path id="Vector_4" fill-rule="evenodd" clip-rule="evenodd" d="M22.6528 13.0798C22.6528 13.0798 21.1427 12.9313 20.3872 12.8623C19.61 12.7912 18.7915 12.6409 17.9892 12.6533C16.9805 12.6688 14.3348 12.9551 14.3348 12.9551C14.3348 12.9551 14.0526 15.9951 14.0018 17.4268C13.9533 18.7988 14.0312 21.5454 14.0312 21.5454C16.819 21.9389 19.7172 21.9936 22.7272 21.7042C23.0424 18.7883 23.0508 15.9095 22.6528 13.0798Z" fill="#F1D162"/>
<g id="Group_5">
<path id="Vector_5" fill-rule="evenodd" clip-rule="evenodd" d="M40.1881 13.053C40.1881 13.053 38.6781 12.9044 37.9226 12.8354C37.1454 12.7643 36.3268 12.6141 35.5245 12.6265C34.5158 12.6419 31.8702 12.9282 31.8702 12.9282C31.8702 12.9282 31.5879 15.9682 31.5372 17.3999C31.4887 18.772 31.5666 21.5185 31.5666 21.5185C34.3543 21.9121 37.2525 21.9667 40.2625 21.6773C40.5777 18.7614 40.5862 15.8827 40.1881 13.053Z" fill="#F1D162"/>
</g>
<path id="Vector_6" fill-rule="evenodd" clip-rule="evenodd" d="M11.9841 2.6604C11.9841 2.6604 8.95579 3.83544 7.85779 4.96623C6.245 6.62711 3.4368 9.81015 2.30734 12.6258C1.178 15.4416 0.833419 18.9822 1.08165 21.8604C1.32455 24.6769 2.39615 27.5414 3.79686 29.8941C5.19744 32.2468 7.17031 34.4467 9.48593 35.9766C11.867 37.5498 14.911 38.8914 18.0834 39.3332C21.6253 39.8263 27.1799 38.8871 30.0237 37.3121C32.4683 35.9585 34.9051 33.4446 36.3693 31.8343C37.4551 30.6401 38.2457 28.7872 38.8087 27.6497C39.2235 26.8125 39.7501 25.0093 39.7501 25.0093L38.3913 25.0724C38.3913 25.0724 37.416 27.8104 36.5253 28.9234C35.316 30.4338 33.2602 32.8251 31.1316 34.1357C28.9795 35.4613 26.3552 36.3591 23.6098 36.877C20.2612 37.5087 14.7747 36.7367 10.9653 34.0702C9.41051 32.9819 7.14456 31.602 5.03829 27.9607C3.7377 25.7123 3.07024 24.1662 2.64387 21.8604C2.11619 19.0071 2.54413 15.2909 3.28623 12.6527C4.50944 8.30358 10.0514 3.52868 11.9841 2.6604Z" fill="#F1D162"/>
</g>
</g>
<g id="Group_6">
<g id="Group_7">
<g id="Group_8">
<path id="Vector_7" d="M39.7607 24.9933C37.5008 33.3118 29.8189 39.4429 20.701 39.4429C9.80998 39.4429 0.967834 30.6961 0.967834 19.9226C0.967834 9.14913 9.80998 0.402344 20.701 0.402344C27.6725 0.402344 33.8053 3.98686 37.3158 9.3929C37.4957 9.67066 37.6693 9.95327 37.8364 10.2405" stroke="#A17521" stroke-width="0.5" stroke-miterlimit="1.5" stroke-linecap="round" stroke-linejoin="round"/>
</g>
<g id="Group_9">
<path id="Vector_8" d="M38.4453 25.0596C35.8149 32.0298 28.9821 37.0024 20.9771 37.0024C10.6976 37.0024 2.35187 28.8024 2.35187 18.7023C2.35187 8.60237 10.6976 0.402344 20.9771 0.402344C28.1499 0.402344 34.6321 4.40614 37.7432 10.2513" stroke="#A17521" stroke-width="0.5" stroke-miterlimit="1.5" stroke-linecap="round" stroke-linejoin="round"/>
</g>
<g id="Group_10">
<path id="Vector_9" d="M6.73123 15.2454C8.2936 8.68961 14.2 3.80786 21.2388 3.80786C26.3654 3.80786 30.8918 6.39789 33.5765 10.3384" stroke="#A17521" stroke-width="0.5" stroke-miterlimit="1.5" stroke-linecap="round" stroke-linejoin="round"/>
</g>
<g id="Group_11">
<path id="Vector_10" d="M34.6333 25.2236C32.2312 30.2357 27.1696 33.5967 21.2388 33.5967C14.8196 33.5967 9.42057 29.688 7.32089 24.0007" stroke="#A17521" stroke-width="0.5" stroke-miterlimit="1.5" stroke-linecap="round" stroke-linejoin="round"/>
</g>
</g>
<g id="Group_12">
<path id="Vector_11" d="M29.0419 15.2453C29.0887 13.7098 29.2032 12.2079 29.3943 10.7438C33.909 10.1521 38.2898 10.049 42.4912 10.611C43.0165 15.0266 43.1128 19.4624 42.9112 23.9122C38.611 24.3428 34.1067 24.3944 29.4281 24.1216C29.2149 22.1234 29.0783 20.1634 29.0341 18.2489" stroke="#A17521" stroke-width="0.5" stroke-miterlimit="1.5" stroke-linecap="round" stroke-linejoin="round"/>
<path id="Vector_12" d="M29.0419 15.2454C27.9679 15.2455 26.7462 15.2458 25.438 15.2459" stroke="#A17521" stroke-width="0.5" stroke-miterlimit="1.5" stroke-linecap="round" stroke-linejoin="round"/>
<path id="Vector_13" d="M10.5862 15.2454C7.44439 15.2459 5.41353 15.2493 5.41353 15.2493L5.21432 23.2171L8.1346 23.215L8.30013 18.1985C8.30013 18.1985 8.98748 18.2398 10.4126 18.2435" stroke="#A17521" stroke-width="0.5" stroke-miterlimit="1.5" stroke-linecap="round" stroke-linejoin="round"/>
<path id="Vector_14" d="M25.4438 18.2434C26.7531 18.2468 27.9744 18.25 29.0342 18.2528" stroke="#A17521" stroke-width="0.5" stroke-miterlimit="1.5" stroke-linecap="round" stroke-linejoin="round"/>
<g id="Group_13">
<path id="Vector_15" fill-rule="evenodd" clip-rule="evenodd" d="M31.7247 12.9968C34.65 12.6095 37.4884 12.542 40.2106 12.9099C40.5509 15.7999 40.6133 18.7032 40.4827 21.6156C37.6965 21.8974 34.778 21.9312 31.7466 21.7526C31.4214 18.6746 31.3717 15.7349 31.7247 12.9968Z" stroke="#A17521" stroke-width="0.5" stroke-miterlimit="1.5" stroke-linecap="round" stroke-linejoin="round"/>
</g>
<path id="Vector_16" d="M42.4912 10.6108C42.737 10.772 43.2272 11.0942 43.3377 11.5345C44.0035 14.18 44.0633 23.1607 43.6121 24.6141C42.6577 24.9901 33.0872 25.4232 30.207 24.8744C29.852 24.807 29.5699 24.3499 29.4281 24.1214" stroke="#A17521" stroke-width="0.5" stroke-miterlimit="1.5" stroke-linecap="round" stroke-linejoin="round"/>
<path id="Vector_17" d="M42.9112 23.9124C43.1453 24.1463 43.3793 24.3804 43.6121 24.6143" stroke="#A17521" stroke-width="0.5" stroke-miterlimit="1.5" stroke-linecap="round" stroke-linejoin="round"/>
<g id="Group_14">
<path id="Vector_18" d="M25.4361 15.2453C25.3893 13.7042 25.2748 12.1971 25.0837 10.7279C20.569 10.1362 16.1882 10.0331 11.9868 10.5951C11.4615 15.0107 11.3652 19.4466 11.5668 23.8964C15.867 24.3269 20.3713 24.3786 25.0499 24.1057C25.2618 22.1125 25.3984 20.1573 25.4439 18.2472" stroke="#A17521" stroke-width="0.5" stroke-miterlimit="1.5" stroke-linecap="round" stroke-linejoin="round"/>
</g>
<g id="Group_15">
<path id="Vector_19" fill-rule="evenodd" clip-rule="evenodd" d="M25.4361 15.2455C25.4348 15.1927 25.4361 15.246 25.4361 15.2455Z" stroke="#A17521" stroke-width="0.5" stroke-miterlimit="1.5" stroke-linecap="round" stroke-linejoin="round"/>
</g>
<g id="Group_16">
<path id="Vector_20" fill-rule="evenodd" clip-rule="evenodd" d="M22.753 12.9809C19.8278 12.5937 16.9894 12.5262 14.2672 12.894C13.9268 15.784 13.8645 18.6873 13.9951 21.5997C16.7813 21.8815 19.6998 21.9154 22.7311 21.7368C23.0563 18.6588 23.1061 15.719 22.753 12.9809Z" stroke="#A17521" stroke-width="0.5" stroke-miterlimit="1.5" stroke-linecap="round" stroke-linejoin="round"/>
</g>
<g id="Group_17">
<path id="Vector_21" d="M11.9868 10.5952C11.7411 10.7564 11.2508 11.0786 11.1403 11.5189C10.4745 14.1644 10.4147 23.1451 10.8659 24.5984C11.8204 24.9744 21.3908 25.4076 24.271 24.8588C24.626 24.7914 24.9082 24.3343 25.0499 24.1058" stroke="#A17521" stroke-width="0.5" stroke-miterlimit="1.5" stroke-linecap="round" stroke-linejoin="round"/>
</g>
<g id="Group_18">
<path id="Vector_22" d="M11.5668 23.8965C11.3327 24.1304 11.0987 24.3645 10.8659 24.5985" stroke="#A17521" stroke-width="0.5" stroke-miterlimit="1.5" stroke-linecap="round" stroke-linejoin="round"/>
</g>
<path id="Vector_23" d="M8.26608 19.2312H10.5863" stroke="#A17521" stroke-width="0.5" stroke-miterlimit="1.5" stroke-linecap="round" stroke-linejoin="round"/>
<path id="Vector_24" d="M25.4601 19.2312H29.0185" stroke="#A17521" stroke-width="0.5" stroke-miterlimit="1.5" stroke-linecap="round" stroke-linejoin="round"/>
<path id="Vector_25" d="M5.41351 15.2493C5.08192 15.3453 4.63982 15.9089 4.71264 16.0315L4.55737 23.8811C4.55737 23.8811 7.04906 24.0175 7.64526 23.9065C7.92262 23.8549 8.06384 23.4283 8.13458 23.215" stroke="#A17521" stroke-width="0.5" stroke-miterlimit="1.5" stroke-linecap="round" stroke-linejoin="round"/>
<path id="Vector_26" d="M4.55737 23.881C4.77635 23.6597 4.99533 23.4384 5.2143 23.217" stroke="#A17521" stroke-width="0.5" stroke-miterlimit="1.5" stroke-linecap="round" stroke-linejoin="round"/>
</g>
</g>
</g>
</svg>
